<?xml version="1.0" encoding="UTF-8"?>
<svg xmlns="http://www.w3.org/2000/svg" width="512" height="512" viewBox="0 0 512 512">
  <rect x="0" y="0" width="512" height="512" fill="#e0e0df"/>
  <path d="M 190.0 131.0 L 196.0 139.0 L 210.0 152.0 L 239.0 171.0 L 259.0 180.0 L 276.0 185.0 L 288.0 186.0 L 290.0 188.0 L 329.0 188.0 L 370.0 182.0 L 402.0 171.0 L 424.0 158.0 L 426.0 155.0 L 426.0 153.0 L 421.0 150.0 L 417.0 144.0 L 414.0 144.0 L 372.0 160.0 L 329.0 170.0 L 281.0 170.0 L 259.0 166.0 L 232.0 157.0 L 214.0 148.0 Z" fill="#fad61a" fill-rule="evenodd"/>
  <path d="M 121.0 127.0 L 111.0 146.0 L 105.0 166.0 L 102.0 190.0 L 102.0 209.0 L 105.0 232.0 L 112.0 255.0 L 122.0 276.0 L 135.0 296.0 L 164.0 327.0 L 188.0 344.0 L 212.0 356.0 L 234.0 364.0 L 262.0 371.0 L 298.0 376.0 L 317.0 376.0 L 319.0 367.0 L 318.0 365.0 L 246.0 348.0 L 210.0 334.0 L 193.0 323.0 L 191.0 323.0 L 179.0 314.0 L 147.0 282.0 L 128.0 251.0 L 119.0 228.0 L 114.0 207.0 L 111.0 186.0 L 112.0 160.0 L 115.0 152.0 L 118.0 149.0 L 128.0 130.0 L 127.0 127.0 Z" fill="#fad61a" fill-rule="evenodd"/>
  <path d="M 141.0 127.0 L 140.0 132.0 L 133.0 145.0 L 133.0 164.0 L 137.0 194.0 L 144.0 216.0 L 155.0 238.0 L 175.0 265.0 L 188.0 278.0 L 214.0 297.0 L 230.0 306.0 L 262.0 318.0 L 285.0 323.0 L 312.0 325.0 L 340.0 324.0 L 362.0 321.0 L 385.0 316.0 L 418.0 304.0 L 413.0 298.0 L 411.0 292.0 L 343.0 299.0 L 313.0 299.0 L 287.0 296.0 L 263.0 290.0 L 225.0 272.0 L 207.0 259.0 L 181.0 233.0 L 165.0 210.0 L 156.0 192.0 L 147.0 167.0 L 143.0 145.0 L 144.0 127.0 Z" fill="#fad61a" fill-rule="evenodd"/>
  <path d="M 155.0 123.0 L 154.0 138.0 L 158.0 161.0 L 162.0 173.0 L 175.0 197.0 L 187.0 214.0 L 197.0 224.0 L 217.0 239.0 L 241.0 252.0 L 270.0 263.0 L 308.0 271.0 L 362.0 272.0 L 379.0 270.0 L 412.0 263.0 L 437.0 255.0 L 445.0 251.0 L 440.0 246.0 L 437.0 240.0 L 428.0 240.0 L 380.0 248.0 L 327.0 249.0 L 288.0 243.0 L 257.0 233.0 L 240.0 225.0 L 222.0 214.0 L 205.0 201.0 L 188.0 184.0 L 172.0 162.0 L 160.0 138.0 L 157.0 122.0 Z" fill="#fad61a" fill-rule="evenodd"/>
  <path d="M 168.0 118.0 L 171.0 133.0 L 179.0 150.0 L 190.0 165.0 L 209.0 184.0 L 224.0 196.0 L 240.0 206.0 L 268.0 219.0 L 286.0 225.0 L 318.0 231.0 L 338.0 232.0 L 346.0 230.0 L 357.0 230.0 L 393.0 223.0 L 439.0 205.0 L 431.0 194.0 L 425.0 194.0 L 380.0 205.0 L 351.0 209.0 L 305.0 208.0 L 272.0 201.0 L 248.0 192.0 L 214.0 172.0 L 192.0 152.0 L 177.0 131.0 L 170.0 115.0 Z" fill="#fad61a" fill-rule="evenodd"/>
  <path d="M 110.0 98.0 L 107.0 105.0 L 105.0 121.0 L 106.0 125.0 L 96.0 146.0 L 66.0 178.0 L 53.0 201.0 L 49.0 215.0 L 48.0 237.0 L 53.0 264.0 L 60.0 284.0 L 70.0 304.0 L 90.0 334.0 L 115.0 361.0 L 148.0 386.0 L 170.0 398.0 L 187.0 405.0 L 226.0 415.0 L 242.0 417.0 L 269.0 417.0 L 302.0 411.0 L 329.0 400.0 L 339.0 391.0 L 352.0 389.0 L 375.0 382.0 L 395.0 371.0 L 411.0 356.0 L 415.0 350.0 L 415.0 339.0 L 409.0 332.0 L 430.0 315.0 L 438.0 303.0 L 439.0 293.0 L 433.0 281.0 L 458.0 259.0 L 463.0 249.0 L 463.0 239.0 L 460.0 232.0 L 452.0 226.0 L 440.0 224.0 L 448.0 215.0 L 454.0 204.0 L 455.0 197.0 L 452.0 187.0 L 449.0 183.0 L 440.0 179.0 L 427.0 180.0 L 421.0 182.0 L 419.0 181.0 L 430.0 168.0 L 437.0 152.0 L 437.0 142.0 L 434.0 135.0 L 430.0 131.0 L 425.0 129.0 L 419.0 129.0 L 377.0 144.0 L 330.0 156.0 L 314.0 158.0 L 283.0 158.0 L 243.0 148.0 L 223.0 140.0 L 198.0 127.0 L 178.0 111.0 L 176.0 107.0 L 176.0 91.0 L 174.0 88.0 L 168.0 85.0 L 142.0 85.0 L 118.0 93.0 Z M 399.0 355.0 L 393.0 362.0 L 383.0 369.0 L 370.0 375.0 L 345.0 382.0 L 343.0 380.0 L 343.0 370.0 L 341.0 365.0 L 337.0 361.0 L 329.0 357.0 L 330.0 355.0 L 339.0 355.0 L 365.0 350.0 L 389.0 340.0 L 392.0 341.0 L 393.0 349.0 Z M 186.0 128.0 L 188.0 127.0 L 209.0 141.0 L 235.0 153.0 L 254.0 159.0 L 284.0 164.0 L 317.0 164.0 L 349.0 159.0 L 389.0 147.0 L 415.0 136.0 L 418.0 138.0 L 419.0 145.0 L 429.0 153.0 L 423.0 165.0 L 411.0 177.0 L 393.0 188.0 L 346.0 195.0 L 307.0 194.0 L 277.0 188.0 L 259.0 182.0 L 232.0 169.0 L 206.0 151.0 L 191.0 136.0 Z M 114.0 125.0 L 128.0 125.0 L 130.0 127.0 L 129.0 133.0 L 116.0 155.0 L 112.0 171.0 L 113.0 188.0 L 117.0 213.0 L 127.0 244.0 L 137.0 264.0 L 156.0 290.0 L 178.0 311.0 L 198.0 325.0 L 219.0 336.0 L 256.0 349.0 L 320.0 364.0 L 322.0 366.0 L 319.0 371.0 L 322.0 382.0 L 327.0 387.0 L 324.0 390.0 L 300.0 401.0 L 268.0 407.0 L 233.0 406.0 L 205.0 400.0 L 175.0 389.0 L 143.0 370.0 L 122.0 353.0 L 94.0 322.0 L 81.0 303.0 L 67.0 275.0 L 59.0 248.0 L 57.0 222.0 L 60.0 207.0 L 67.0 192.0 L 79.0 176.0 L 100.0 154.0 L 107.0 141.0 L 111.0 128.0 Z M 139.0 126.0 L 142.0 123.0 L 146.0 126.0 L 145.0 147.0 L 148.0 164.0 L 155.0 183.0 L 165.0 202.0 L 182.0 225.0 L 201.0 244.0 L 225.0 262.0 L 257.0 278.0 L 284.0 286.0 L 302.0 289.0 L 351.0 290.0 L 399.0 284.0 L 413.0 284.0 L 415.0 286.0 L 413.0 289.0 L 414.0 295.0 L 416.0 299.0 L 424.0 305.0 L 412.0 318.0 L 383.0 335.0 L 357.0 343.0 L 330.0 347.0 L 296.0 347.0 L 266.0 343.0 L 234.0 333.0 L 203.0 317.0 L 180.0 300.0 L 160.0 280.0 L 143.0 256.0 L 131.0 230.0 L 124.0 202.0 L 121.0 171.0 L 124.0 158.0 L 137.0 135.0 Z M 153.0 122.0 L 157.0 119.0 L 159.0 121.0 L 161.0 134.0 L 167.0 149.0 L 175.0 162.0 L 190.0 180.0 L 217.0 203.0 L 231.0 212.0 L 255.0 224.0 L 292.0 236.0 L 324.0 241.0 L 369.0 241.0 L 404.0 237.0 L 423.0 233.0 L 440.0 232.0 L 441.0 244.0 L 450.0 253.0 L 436.0 268.0 L 423.0 277.0 L 404.0 277.0 L 370.0 281.0 L 304.0 281.0 L 275.0 275.0 L 253.0 267.0 L 232.0 256.0 L 215.0 244.0 L 191.0 221.0 L 179.0 206.0 L 168.0 189.0 L 156.0 161.0 L 152.0 136.0 Z M 166.0 116.0 L 169.0 113.0 L 173.0 115.0 L 174.0 121.0 L 186.0 141.0 L 201.0 156.0 L 214.0 166.0 L 246.0 184.0 L 273.0 194.0 L 309.0 201.0 L 340.0 202.0 L 384.0 197.0 L 423.0 187.0 L 432.0 186.0 L 434.0 188.0 L 433.0 193.0 L 435.0 198.0 L 444.0 205.0 L 439.0 213.0 L 425.0 227.0 L 398.0 231.0 L 367.0 234.0 L 329.0 234.0 L 299.0 230.0 L 283.0 226.0 L 258.0 217.0 L 240.0 208.0 L 220.0 195.0 L 204.0 182.0 L 186.0 163.0 L 177.0 150.0 L 168.0 130.0 Z" fill="#161618" fill-rule="evenodd"/>
  <path d="M 390.0 343.0 L 388.0 342.0 L 364.0 352.0 L 345.0 356.0 L 338.0 356.0 L 335.0 358.0 L 338.0 359.0 L 343.0 365.0 L 346.0 379.0 L 362.0 376.0 L 383.0 367.0 L 396.0 357.0 L 397.0 355.0 L 391.0 349.0 Z" fill="#f9b41a" fill-rule="evenodd"/>
  <path d="M 198.0 226.0 L 216.0 243.0 L 246.0 262.0 L 274.0 273.0 L 295.0 278.0 L 311.0 280.0 L 361.0 280.0 L 366.0 278.0 L 373.0 279.0 L 375.0 277.0 L 384.0 278.0 L 407.0 275.0 L 424.0 275.0 L 435.0 267.0 L 447.0 255.0 L 447.0 252.0 L 445.0 252.0 L 437.0 256.0 L 412.0 264.0 L 373.0 272.0 L 308.0 272.0 L 270.0 264.0 L 248.0 256.0 L 217.0 240.0 Z" fill="#f9b41a" fill-rule="evenodd"/>
  <path d="M 441.0 205.0 L 416.0 216.0 L 393.0 224.0 L 371.0 229.0 L 346.0 232.0 L 371.0 232.0 L 374.0 230.0 L 381.0 231.0 L 384.0 229.0 L 391.0 230.0 L 393.0 228.0 L 399.0 229.0 L 424.0 225.0 L 441.0 208.0 Z" fill="#f9b41a" fill-rule="evenodd"/>
  <path d="M 284.0 187.0 L 289.0 189.0 L 288.0 187.0 Z" fill="#f9b41a" fill-rule="evenodd"/>
  <path d="M 280.0 186.0 L 280.0 187.0 L 281.0 187.0 L 281.0 186.0 Z" fill="#f9b41a" fill-rule="evenodd"/>
  <path d="M 424.0 159.0 L 402.0 172.0 L 370.0 183.0 L 329.0 189.0 L 291.0 189.0 L 314.0 193.0 L 350.0 193.0 L 390.0 187.0 L 410.0 176.0 L 422.0 164.0 Z" fill="#f9b41a" fill-rule="evenodd"/>
  <path d="M 128.0 153.0 L 125.0 166.0 L 123.0 169.0 L 123.0 183.0 L 125.0 186.0 L 125.0 198.0 L 127.0 209.0 L 130.0 215.0 L 129.0 218.0 L 138.0 243.0 L 152.0 267.0 L 161.0 277.0 L 162.0 280.0 L 186.0 303.0 L 211.0 320.0 L 236.0 332.0 L 269.0 342.0 L 281.0 344.0 L 289.0 343.0 L 291.0 345.0 L 319.0 346.0 L 333.0 345.0 L 335.0 343.0 L 342.0 344.0 L 354.0 342.0 L 386.0 332.0 L 411.0 317.0 L 422.0 306.0 L 421.0 304.0 L 385.0 317.0 L 362.0 322.0 L 325.0 326.0 L 285.0 324.0 L 262.0 319.0 L 230.0 307.0 L 214.0 298.0 L 188.0 279.0 L 169.0 259.0 L 154.0 238.0 L 143.0 216.0 L 136.0 194.0 L 132.0 164.0 L 132.0 149.0 Z" fill="#f9b41a" fill-rule="evenodd"/>
  <path d="M 115.0 127.0 L 112.0 130.0 L 111.0 137.0 L 103.0 153.0 L 97.0 161.0 L 75.0 183.0 L 68.0 198.0 L 65.0 214.0 L 66.0 240.0 L 75.0 271.0 L 87.0 295.0 L 109.0 326.0 L 136.0 353.0 L 161.0 371.0 L 192.0 387.0 L 218.0 396.0 L 249.0 402.0 L 276.0 403.0 L 304.0 398.0 L 324.0 388.0 L 318.0 377.0 L 298.0 377.0 L 262.0 372.0 L 234.0 365.0 L 203.0 353.0 L 188.0 345.0 L 164.0 328.0 L 138.0 301.0 L 124.0 281.0 L 114.0 262.0 L 106.0 240.0 L 102.0 220.0 L 102.0 179.0 L 106.0 158.0 L 110.0 146.0 L 119.0 128.0 Z" fill="#f9b41a" fill-rule="evenodd"/>
  <path d="M 249.0 189.0 L 249.0 190.0 L 250.0 190.0 L 251.0 190.0 L 250.0 190.0 Z" fill="#f5eea5" fill-rule="evenodd"/>
  <path d="M 308.0 168.0 L 308.0 169.0 L 309.0 169.0 L 310.0 169.0 L 310.0 168.0 L 309.0 168.0 Z" fill="#f5eea5" fill-rule="evenodd"/>
  <path d="M 286.0 168.0 L 286.0 169.0 L 287.0 169.0 L 287.0 168.0 Z" fill="#f5eea5" fill-rule="evenodd"/>
  <path d="M 367.0 158.0 L 368.0 159.0 L 369.0 159.0 L 369.0 158.0 L 368.0 158.0 Z" fill="#f5eea5" fill-rule="evenodd"/>
  <path d="M 401.0 145.0 L 402.0 147.0 L 403.0 146.0 Z" fill="#f5eea5" fill-rule="evenodd"/>
  <path d="M 414.0 139.0 L 410.0 141.0 L 410.0 143.0 L 415.0 142.0 Z" fill="#f5eea5" fill-rule="evenodd"/>
</svg>
