<svg id="Graphic_elements" data-name="Graphic elements" xmlns="http://www.w3.org/2000/svg" viewBox="0 0 1200 1200"><defs><style>.cls-1{fill:#231f20;stroke:#231f20;}.cls-1,.cls-2,.cls-3,.cls-4,.cls-5,.cls-6,.cls-7{stroke-width:0.11px;}.cls-2{fill:#fcda01;stroke:#fcda01;}.cls-3{fill:#fff;stroke:#fff;}.cls-4{fill:#febd01;stroke:#febd01;}.cls-5{fill:#fefefd;stroke:#fefefd;}.cls-6{fill:#fffffe;stroke:#fffffe;}.cls-7{stroke:#000;}</style></defs><path class="cls-1" d="M290.15,294.58C299.43,283.4,307,271,315.16,259c-1.25,38.41,9.64,76.38,26.5,110.61,17.15,35.13,40.51,66.95,66.68,95.93a80.21,80.21,0,0,1,6.61,8.3c11.85,10.21,22,22.26,34,32.44,60.18,54.91,131,99.93,209.83,122.21A471.68,471.68,0,0,0,755,645.59c4.19-2.26,9-1.87,13.67-1.78,27.86.84,55.74.58,83.6-.06,3.1.06,6.77-.61,9.25,1.91,73.34-4.57,146-16.21,219.28-22-2.44,5-4.55,10.13-4.9,15.75,5.62,9,8.77,19.84,17.23,26.81,3.8,3.49,9.16,4,14,5.29-5.65,13.38-17.35,22.6-26.85,33.16-7.52,7-13.25,16.87-22.52,21.52-9.59,12.41-23.29,20.75-35.64,30.14-71.56,49-158.74,70.3-244.43,75.09-60.58,3.32-121.73-2.8-180.19-19.11-34.17-8.6-65.78-24.81-96.39-41.84C432.64,731.47,376.16,673,336.89,605c-38.32-65.63-61.54-139.31-73.39-214.12-2-12.24.77-24.28,6.37-35.16,3.43-7.78,5.15-16.24,9.38-23.6.13-12.93,1.89-27.31,10.9-37.51L226.26,262c-1,0-2.95,0-3.94,0a147.72,147.72,0,0,0-4.61,19.82c-9.18,27.82-20.61,55.76-40.67,77.65-28.19,29.5-57.3,60.4-72.31,99-10.32,19.95-13.86,42.75-16,64.92-.6-1.36-1.83-4.09-2.42-5.45A255.65,255.65,0,0,0,86,553.52c-.26,2.77,1.54,4.88,3.39,6.81C97.56,650.84,139.57,735.21,196,805.28c51.15,62.94,113.84,117.26,185.82,155.09,87.07,44.74,185.46,71.12,283.8,65.13,23.77-2.24,47.9-4.92,70.58-12.63,17.24-3.63,33.53-10.94,49.52-18.18,15.14-7.69,32-12.48,44.94-24-8.64-5.47-13.59-14.55-15.21-24.43-.31-6.4-1-12.77-.42-19.1,1.33-4.66,5.68-7.57,8.7-11.07C765.48,897.43,706,883.3,647.34,866,572,844.05,497.24,814.93,434.43,766.9,396.66,738.29,363.7,703.6,336,665.27c-48.33-66.9-79.84-144.91-97.37-225.28-4.59-22.65-10.44-45.46-8.9-68.77.78-27.22,8.56-54,21.59-77.89,6.81-13.18,16.39-24.54,25.2-36.37a136.91,136.91,0,0,1-50.25,5L290,143c17-2,34.82-4.94,51.5.52a29.57,29.57,0,0,1,19.43,20c4.42,13.67.09,27.91-2.42,41.51-6,18.83-11.12,38.38-10.13,58.31,13.86,27.23,36.07,49.4,59.43,68.73,35.27,28.41,75.52,50.05,117.31,67.19,34.47,13.87,70.41,24.66,107.35,29.51,54.62,7.71,110.5,1.89,163.47-12.74,81.27-22.21,156.46-61.26,235.58-89.47,14.26-4.57,31.62-6.4,44.25,3.32,17.84,13.73,30.79,35.9,28.7,59-.64,18.61-9.82,35.22-18.53,51.17a308.87,308.87,0,0,1-63.21,88.44c-32.1,32.8-71.1,57.85-111.39,79.31,57.94-5.43,115.61-14,173.75-17.53,13.16-.17,27.64,1.83,37.77,11,10.84,9.48,16.13,23.47,20,37,5.06,18.33,1,38.21-8.63,54.34-10,17.91-26.5,30.68-39.66,46.1-53.13,55.68-124.86,90.34-198.82,108.87-40.89,9.93-82.81,16.41-125,17,25.33,9.35,52.25,14.17,77.09,24.89,13.4,5.62,24.67,17,27.66,31.58,3.88,20,2.22,42.23-9.37,59.49-9.9,15-25,25.93-41.33,33.18-20,8.81-39.37,19.07-60.22,25.79-49.3,17.32-102.21,22-154.16,19.47-81.12-4.74-160.63-27.77-233.51-63.28-70.59-35.16-133-85.49-185.49-144.14-51.45-57.87-93.51-125-117.24-199C60.68,609.21,52.68,563.66,55.6,518.18A229.76,229.76,0,0,1,88.3,415.71c13.42-22.48,30.08-42.82,47.79-62,8-8.85,17-16.79,23.9-26.56,12.9-18.23,21.14-39.3,26.8-60.79,2.58-8.9-.54-18.07-.11-27.07.33-18.62,1.45-38.29,10.7-54.9,5-9.25,15.3-13.12,24.28-17.36,22-10.09,45-17.62,68.33-24ZM364,338c8.69,23.4,21.92,44.92,36.34,65.24,40.5,55.76,93.14,102,150.71,139.52,6.15,3.32,11.64,8.71,18.68,10,6.59,6.34,15.31,9.6,23.27,13.86,55.76,28.46,117.88,43.57,180.3,46.58,12.61.48,25.73,2.63,37.92-1.91C886.73,588.07,959.94,549.8,1013,490.08c10-12.22,20.89-24.23,27.63-38.64,6.51-7,9.69-16.46,14.33-24.72,5.41-11.4,13.59-21.94,15-34.78-14,.77-23.2-10.64-31.13-20.34l-1.18.46c-.17-4.09-.24-8.13-.2-12.15-74.48,27.73-146,63.32-222.47,85.8-44.24,12.88-90.24,21-136.44,19.88-57.85.06-115-14.16-168.24-36.22-14.59-5.58-28.19-13.51-42.75-19.08-7.84-5.48-16.7-9.29-24.84-14.27C414.33,379.77,388.23,359.82,364,338Z"/><path class="cls-2" d="M226.26,262a136.62,136.62,0,0,0,50.27-5c-8.81,11.83-18.39,23.18-25.2,36.37-13,23.87-20.8,50.67-21.59,77.89-1.54,23.31,4.31,46.12,8.9,68.77,17.53,80.37,49,158.38,97.37,225.28,27.71,38.34,60.67,73,98.44,101.63C497.27,814.92,572,844,647.36,866,706,883.29,765.5,897.42,823.72,916.06c-3,3.5-7.38,6.42-8.7,11.07-.59,6.33.12,12.7.42,19.1-45.11-4.33-90.13-10-134.47-19.41-78.49-15.32-157.3-37.13-225.82-79.64-67.28-41.36-123.07-100-165.27-166.46C240.82,603,213.78,511.4,214.67,419.39,214,367.49,223,316,236.14,265.94q-5.35-1.29-10.66-2.45Z"/><path class="cls-2" d="M290.15,294.58C299.43,283.4,307,271,315.14,259c-1.26,38.41,9.64,76.38,26.49,110.61,17.17,35.13,40.52,66.94,66.68,95.93a76.51,76.51,0,0,1,6.61,8.31c8.9,13.64,21.23,24.54,32.08,36.56,52.48,54.33,116.32,98.32,187.42,124.39a464.08,464.08,0,0,0,130,26.81c60,4.64,120.14-1.39,179.77-8,43.81-5.43,87.73-9.83,131.65-14.27,5.62,9,8.77,19.83,17.23,26.8,3.8,3.49,9.16,4,14,5.29-5.65,13.39-17.35,22.59-26.85,33.16-7.52,7-13.25,16.88-22.52,21.52-15.47.35-29.77,6.85-44.72,10.06-48,12.15-96.74,21-145.76,27.64-56.18,7.09-113.53,8.39-169.51-1C593.74,745,497.37,692,422,618.82c-31-32.06-58.38-67.7-80.07-106.69a520.25,520.25,0,0,1-57.07-162.5c-1-6.14-3.3-11.89-5.67-17.53C279.38,319.17,281.14,304.78,290.15,294.58Z"/><path class="cls-3" d="M222.32,261.94c1,0,3,0,3.94,0l-.79,1.53c-2.68,6-5,12.22-7.76,18.24A147.58,147.58,0,0,1,222.32,261.94Z"/><path class="cls-4" d="M225.46,263.52q5.29,1.16,10.66,2.45C223,316,214,367.52,214.65,419.42c-.9,92,26.15,183.64,75.21,261.33,42.21,66.47,98,125.1,165.27,166.46,68.52,42.51,147.34,64.32,225.82,79.64,44.34,9.43,89.35,15.08,134.47,19.41,1.62,9.88,6.57,19,15.2,24.43-12.89,11.53-29.79,16.32-44.93,24-16,7.23-32.28,14.54-49.53,18.18-22,2.42-44.07,6.06-66.33,5.73-90,.92-179.07-23.25-259.28-63.1C340.88,920.84,279.33,871,227.89,812.87,177,754.7,136,686.81,114.26,612.33,100,562.58,93.54,509.44,104.72,458.4c15-38.58,44.12-69.48,72.31-99,20.06-21.89,31.49-49.83,40.67-77.65C220.47,275.73,222.79,269.54,225.46,263.52Z"/><path class="cls-4" d="M269.87,355.69c3.43-7.78,5.15-16.23,9.38-23.6,2.37,5.65,4.65,11.4,5.67,17.53A520,520,0,0,0,342,512.12c21.68,39,49.08,74.64,80.07,106.69C497.4,692,593.76,745,697.74,762.84c56,9.42,113.33,8.13,169.51,1,49-6.68,97.8-15.49,145.77-27.64,14.94-3.21,29.24-9.71,44.71-10.06-9.58,12.41-23.29,20.76-35.64,30.14-71.57,49-158.75,70.31-244.43,75.09-60.58,3.32-121.73-2.81-180.19-19.11-34.17-8.59-65.78-24.8-96.39-41.83C432.66,731.45,376.17,673,336.9,605c-38.31-65.63-61.54-139.31-73.39-214.12C261.47,378.61,264.27,366.56,269.87,355.69Z"/><path class="cls-2" d="M364,338c24.27,21.86,50.38,41.82,78.8,58,8.14,5,17,8.78,24.84,14.27,12,9.41,26.36,15,39.77,22,47.28,23,98.62,37.94,151.07,42.53,45.05,4.26,90.53-.94,134.4-11.36,85-20.69,163.27-60.86,244.86-91.38l1.18-.46c7.93,9.7,17.18,21.11,31.13,20.34-1.48,12.83-9.65,23.38-15,34.78-4.64,8.27-7.82,17.69-14.33,24.73-20.23,8.06-37.58,21.66-57,31.35-76.08,40.42-156.4,78.52-243.42,86-45.29,5-91,0-135.43-9.4-11.68-2.24-23-7.15-35.06-6.61-7-1.28-12.53-6.68-18.68-10C493.42,505.18,440.78,459,400.28,403.19,385.88,382.87,372.65,361.36,364,338Z"/><path class="cls-5" d="M815,445.68c76.42-22.48,148-58.07,222.47-85.8,0,4,0,8.06.19,12.15-81.59,30.51-159.85,70.69-244.86,91.38C749,473.83,703.47,479,658.42,474.77c-52.44-4.59-103.79-19.55-151.07-42.53-13.41-7-27.79-12.56-39.77-22,14.57,5.56,28.17,13.49,42.75,19.08,53.24,22,110.39,36.29,168.24,36.22C724.79,466.69,770.78,458.56,815,445.68Z"/><path class="cls-4" d="M983.59,482.78c19.45-9.69,36.8-23.29,57-31.36-6.74,14.41-17.59,26.43-27.63,38.65-53.06,59.72-126.28,98-201.84,121.17-12.19,4.55-25.31,2.39-37.92,1.91-62.42-3-124.53-18.12-180.3-46.58-8-4.26-16.68-7.52-23.27-13.86,12.09-.53,23.38,4.37,35.06,6.61,44.38,9.35,90.15,14.37,135.44,9.4C827.2,561.3,907.51,523.2,983.59,482.78Z"/><path class="cls-6" d="M88.69,523.31c2.18-22.17,5.71-45,16-64.92-11.18,51-4.68,104.18,9.54,153.93C136,686.8,177,754.69,227.89,812.86c51.43,58.16,113,108,182.65,142.64,80.23,39.86,169.34,64,259.29,63.1,22.26.33,44.27-3.32,66.32-5.73-22.67,7.7-46.8,10.39-70.57,12.63-98.35,6-196.73-20.39-283.8-65.13-72-37.84-134.67-92.15-185.82-155.09C139.57,735.21,97.55,650.84,89.33,560.33A280.72,280.72,0,0,1,88.69,523.31Z"/><path class="cls-6" d="M414.92,473.88c11.87,10.19,22,22.26,34,32.43,60.18,54.9,131,99.93,209.83,122.21A471.68,471.68,0,0,0,755,645.59c35.42,2.8,71.06,2.35,106.52.06,73.34-4.57,146-16.21,219.27-22-2.44,5-4.55,10.14-4.9,15.76-43.93,4.44-87.84,8.85-131.66,14.27-59.62,6.57-119.76,12.6-179.76,8a464.36,464.36,0,0,1-130-26.81c-71.1-26.07-135-70.07-187.42-124.39C436.15,498.42,423.82,487.52,414.92,473.88Z"/><path class="cls-7" d="M86.28,517.86c.59,1.36,1.82,4.09,2.42,5.45a275.64,275.64,0,0,0,.66,37c-1.85-1.93-3.66-4-3.39-6.81A254.12,254.12,0,0,1,86.28,517.86Z"/><path class="cls-7" d="M755,645.58c4.2-2.26,9-1.87,13.67-1.77,27.86.83,55.74.57,83.6-.07,3.1.07,6.77-.61,9.25,1.91C826,647.93,790.37,648.38,755,645.58Z"/></svg>